<svg width="169" height="51" viewBox="0 0 169 51" fill="none" xmlns="http://www.w3.org/2000/svg">
<path d="M7.14396 15.327V11.7H30.427V15.327H20.833V39H16.738V15.327H7.14396ZM37.5768 40.872L38.3568 39.078L30.4398 19.149H34.7298L40.5408 34.32L46.9368 19.149H51.1488L41.5548 41.379C40.6448 43.485 39.6048 44.993 38.4348 45.903C37.2648 46.839 35.7698 47.307 33.9498 47.307C33.5338 47.307 33.1438 47.281 32.7798 47.229C32.4418 47.203 32.1428 47.151 31.8828 47.073V43.641C32.1428 43.693 32.4028 43.732 32.6628 43.758C32.9488 43.784 33.2738 43.797 33.6378 43.797C34.5218 43.797 35.2888 43.55 35.9388 43.056C36.6148 42.588 37.1608 41.86 37.5768 40.872ZM53.571 47.073V19.149H57.432V21.06C58.238 20.332 59.161 19.786 60.201 19.422C61.241 19.032 62.346 18.837 63.516 18.837C64.92 18.837 66.233 19.11 67.455 19.656C68.677 20.176 69.73 20.891 70.614 21.801C71.524 22.711 72.239 23.79 72.759 25.038C73.279 26.286 73.539 27.625 73.539 29.055C73.539 30.485 73.279 31.837 72.759 33.111C72.239 34.359 71.524 35.438 70.614 36.348C69.73 37.258 68.664 37.986 67.416 38.532C66.168 39.052 64.842 39.312 63.438 39.312C62.346 39.312 61.28 39.143 60.24 38.805C59.226 38.467 58.303 37.986 57.471 37.362V47.073H53.571ZM63.009 22.23C61.891 22.23 60.851 22.438 59.889 22.854C58.927 23.27 58.121 23.855 57.471 24.609V33.579C58.095 34.307 58.888 34.879 59.85 35.295C60.838 35.711 61.891 35.919 63.009 35.919C64.907 35.919 66.493 35.269 67.767 33.969C69.067 32.669 69.717 31.044 69.717 29.094C69.717 27.144 69.067 25.519 67.767 24.219C66.467 22.893 64.881 22.23 63.009 22.23ZM94.5356 36.738C93.3916 37.622 92.1956 38.285 90.9476 38.727C89.6996 39.143 88.3346 39.351 86.8526 39.351C85.3966 39.351 84.0316 39.091 82.7576 38.571C81.4836 38.025 80.3786 37.297 79.4426 36.387C78.5066 35.477 77.7656 34.398 77.2196 33.15C76.6996 31.876 76.4396 30.511 76.4396 29.055C76.4396 27.625 76.6996 26.286 77.2196 25.038C77.7396 23.79 78.4416 22.711 79.3256 21.801C80.2096 20.891 81.2626 20.176 82.4846 19.656C83.7066 19.11 85.0066 18.837 86.3846 18.837C87.7366 18.837 88.9976 19.11 90.1676 19.656C91.3636 20.176 92.3776 20.904 93.2096 21.84C94.0676 22.75 94.7436 23.842 95.2376 25.116C95.7316 26.39 95.9786 27.755 95.9786 29.211V30.342H80.3006C80.5606 31.98 81.3146 33.345 82.5626 34.437C83.8106 35.503 85.2926 36.036 87.0086 36.036C87.9706 36.036 88.8936 35.88 89.7776 35.568C90.6616 35.256 91.4156 34.827 92.0396 34.281L94.5356 36.738ZM86.3066 22.113C84.8246 22.113 83.5246 22.607 82.4066 23.595C81.3146 24.583 80.6256 25.857 80.3396 27.417H92.1176C91.8316 25.909 91.1426 24.648 90.0506 23.634C88.9846 22.62 87.7366 22.113 86.3066 22.113ZM102.735 11.037V39H99.8491V11.7L102.735 11.037ZM124.115 36.933C123.023 37.739 121.879 38.35 120.683 38.766C119.513 39.156 118.226 39.351 116.822 39.351C115.418 39.351 114.092 39.091 112.844 38.571C111.622 38.051 110.556 37.336 109.646 36.426C108.762 35.516 108.06 34.45 107.54 33.228C107.02 31.98 106.76 30.641 106.76 29.211C106.76 27.807 107.007 26.494 107.501 25.272C108.021 24.05 108.71 22.984 109.568 22.074C110.426 21.164 111.44 20.449 112.61 19.929C113.806 19.409 115.067 19.149 116.393 19.149C117.693 19.149 118.902 19.409 120.02 19.929C121.164 20.449 122.139 21.164 122.945 22.074C123.777 22.984 124.427 24.05 124.895 25.272C125.389 26.494 125.636 27.807 125.636 29.211V30.108H109.607C109.815 32.032 110.608 33.631 111.986 34.905C113.364 36.179 115.015 36.816 116.939 36.816C117.953 36.816 118.941 36.66 119.903 36.348C120.865 36.036 121.671 35.594 122.321 35.022L124.115 36.933ZM116.315 21.684C114.625 21.684 113.156 22.256 111.908 23.4C110.686 24.544 109.945 26.013 109.685 27.807H122.75C122.49 26.091 121.749 24.648 120.527 23.478C119.331 22.282 117.927 21.684 116.315 21.684ZM127.872 36.309L129.627 34.437C130.511 35.269 131.499 35.919 132.591 36.387C133.709 36.829 134.84 37.05 135.984 37.05C137.544 37.05 138.818 36.725 139.806 36.075C140.794 35.425 141.288 34.58 141.288 33.54C141.288 32.708 140.989 32.058 140.391 31.59C139.819 31.096 138.909 30.758 137.661 30.576L134.268 30.108C132.318 29.822 130.862 29.25 129.9 28.392C128.964 27.508 128.496 26.325 128.496 24.843C128.496 23.205 129.185 21.853 130.563 20.787C131.941 19.695 133.696 19.149 135.828 19.149C137.232 19.149 138.558 19.357 139.806 19.773C141.08 20.189 142.315 20.839 143.511 21.723L141.99 23.673C140.898 22.945 139.832 22.399 138.792 22.035C137.778 21.671 136.738 21.489 135.672 21.489C134.346 21.489 133.254 21.788 132.396 22.386C131.564 22.984 131.148 23.764 131.148 24.726C131.148 25.558 131.434 26.208 132.006 26.676C132.578 27.118 133.501 27.43 134.775 27.612L138.168 28.08C140.118 28.34 141.574 28.925 142.536 29.835C143.524 30.719 144.018 31.902 144.018 33.384C144.018 34.216 143.81 35.009 143.394 35.763C143.004 36.491 142.445 37.128 141.717 37.674C141.015 38.194 140.183 38.61 139.221 38.922C138.259 39.208 137.219 39.351 136.101 39.351C134.489 39.351 132.968 39.091 131.538 38.571C130.134 38.025 128.912 37.271 127.872 36.309ZM145.582 36.309L147.337 34.437C148.221 35.269 149.209 35.919 150.301 36.387C151.419 36.829 152.55 37.05 153.694 37.05C155.254 37.05 156.528 36.725 157.516 36.075C158.504 35.425 158.998 34.58 158.998 33.54C158.998 32.708 158.699 32.058 158.101 31.59C157.529 31.096 156.619 30.758 155.371 30.576L151.978 30.108C150.028 29.822 148.572 29.25 147.61 28.392C146.674 27.508 146.206 26.325 146.206 24.843C146.206 23.205 146.895 21.853 148.273 20.787C149.651 19.695 151.406 19.149 153.538 19.149C154.942 19.149 156.268 19.357 157.516 19.773C158.79 20.189 160.025 20.839 161.221 21.723L159.7 23.673C158.608 22.945 157.542 22.399 156.502 22.035C155.488 21.671 154.448 21.489 153.382 21.489C152.056 21.489 150.964 21.788 150.106 22.386C149.274 22.984 148.858 23.764 148.858 24.726C148.858 25.558 149.144 26.208 149.716 26.676C150.288 27.118 151.211 27.43 152.485 27.612L155.878 28.08C157.828 28.34 159.284 28.925 160.246 29.835C161.234 30.719 161.728 31.902 161.728 33.384C161.728 34.216 161.52 35.009 161.104 35.763C160.714 36.491 160.155 37.128 159.427 37.674C158.725 38.194 157.893 38.61 156.931 38.922C155.969 39.208 154.929 39.351 153.811 39.351C152.199 39.351 150.678 39.091 149.248 38.571C147.844 38.025 146.622 37.271 145.582 36.309Z" fill="black"/>
</svg>
